<?xml version="1.0" encoding="iso-8859-1"?>
<!-- Generator: Adobe Illustrator 19.0.0, SVG Export Plug-In . SVG Version: 6.00 Build 0)  -->
<svg fill="#bf8d38" version="1.1" id="Capa_1" xmlns="http://www.w3.org/2000/svg" xmlns:xlink="http://www.w3.org/1999/xlink" x="0px" y="0px"
	 viewBox="0 0 490 490" style="enable-background:new 0 0 490 490;" xml:space="preserve">
<g>
	<g>
		<g>
			<path d="M245,0C109.5,0,0,109.5,0,245s109.5,245,245,245s245-109.5,245-245S380.5,0,245,0z M245,449.3
				c-112.6,0-204.3-91.7-204.3-204.3S132.4,40.7,245,40.7S449.3,132.4,449.3,245S357.6,449.3,245,449.3z"/>
		</g>
		<path d="M333.5,319.1c-5.3-8.1-16.3-10.7-24.2-5.2c-22.6,15.9-52.9,0.6-55.7-0.2c-10.4-2.7-23.8-2.2-36.8-0.4
			c1.9-4.3,3.5-8.7,5-13.4c4-12.6,6.1-25.4,6.3-37.5h37.2c9.7,0,17.5-7.8,17.5-17.5s-7.8-17.5-17.5-17.5h-42.6
			c0-0.1-0.1-0.3-0.1-0.4c-8.3-22.4-3.4-61.2,21-64.6c32.6-4.4,38.6,29.4,38.7,30.5c0.8,8.9,8.3,15.8,17.4,15.8
			c16.9,0,17.6-16.1,17.3-19.7l0,0c-0.2-1.6-8.6-65.2-73.5-61.6c-59.9,3.4-62.8,81-57.6,100h-12.5c-9.7,0-17.5,7.8-17.5,17.5
			c0,9.7,7.8,17.5,17.5,17.5h19.7c-0.7,26-13.8,54.7-29.1,64.5c-7.4,4.8-10.9,14.7-6.4,22.3c6.8,11.3,19.5,9.7,21.3,9
			c19.4-6.5,52.6-14.1,65.8-10.6c2.6,0.7,45.3,22.4,83.6-4.4C336.3,337.7,338.8,327.2,333.5,319.1z"/>
	</g>
</g>
<g>
</g>
<g>
</g>
<g>
</g>
<g>
</g>
<g>
</g>
<g>
</g>
<g>
</g>
<g>
</g>
<g>
</g>
<g>
</g>
<g>
</g>
<g>
</g>
<g>
</g>
<g>
</g>
<g>
</g>
</svg>
