<svg fill="#bf8d38" class="svg-icon" style="width: 1em; height: 1em;vertical-align: middle;overflow: hidden;" viewBox="0 0 1024 1024" version="1.1" xmlns="http://www.w3.org/2000/svg"><path d="M512 42.666667a469.333333 469.333333 0 1 0 469.333333 469.333333A469.333333 469.333333 0 0 0 512 42.666667z m0 853.333333a384 384 0 1 1 384-384 384 384 0 0 1-384 384z m120.746667-620.8L512 456.533333 391.253333 275.2a42.666667 42.666667 0 0 0-59.306666-11.946667 42.666667 42.666667 0 0 0-11.946667 58.88l90.026667 135.253334H384a42.666667 42.666667 0 0 0 0 85.333333h85.333333l2.133334 3.413333v39.253334H384a42.666667 42.666667 0 0 0 0 85.333333h85.333333V768a42.666667 42.666667 0 0 0 85.333334 0v-97.28h85.333333a42.666667 42.666667 0 0 0 0-85.333333h-85.333333v-39.253334l2.133333-3.413333H640a42.666667 42.666667 0 0 0 0-85.333333h-26.026667l90.026667-135.253334a42.666667 42.666667 0 0 0-11.946667-58.88 42.666667 42.666667 0 0 0-59.306666 11.946667z"  /></svg>